<mxfile host="app.diagrams.net" agent="Mozilla/5.0 (Windows NT 10.0; Win64; x64) AppleWebKit/537.36 (KHTML, like Gecko) Chrome/140.0.0.0 Safari/537.36" version="28.2.2">
  <diagram name="第 1 页" id="fRDhIAgq6DBt945k8ZPk">
    <mxGraphModel dx="1226" dy="629" grid="1" gridSize="10" guides="1" tooltips="1" connect="1" arrows="1" fold="1" page="1" pageScale="1" pageWidth="827" pageHeight="1169" math="0" shadow="0">
      <root>
        <mxCell id="0" />
        <mxCell id="1" parent="0" />
        <mxCell id="iwrp5KL_q3ubFp-Sov2O-1" style="edgeStyle=orthogonalEdgeStyle;rounded=0;orthogonalLoop=1;jettySize=auto;html=1;" parent="1" source="iwrp5KL_q3ubFp-Sov2O-2" target="iwrp5KL_q3ubFp-Sov2O-3" edge="1">
          <mxGeometry relative="1" as="geometry" />
        </mxCell>
        <mxCell id="iwrp5KL_q3ubFp-Sov2O-2" value="开始" style="rounded=1;whiteSpace=wrap;html=1;" parent="1" vertex="1">
          <mxGeometry x="330" y="40" width="120" height="60" as="geometry" />
        </mxCell>
        <mxCell id="UV0igj0LLgznHNvqHeoO-2" style="edgeStyle=orthogonalEdgeStyle;rounded=0;orthogonalLoop=1;jettySize=auto;html=1;" edge="1" parent="1" source="iwrp5KL_q3ubFp-Sov2O-3" target="UV0igj0LLgznHNvqHeoO-1">
          <mxGeometry relative="1" as="geometry" />
        </mxCell>
        <mxCell id="iwrp5KL_q3ubFp-Sov2O-3" value="入口队列(amqp://admin:admin@192.168.0.130:5672)&lt;br&gt;upper_words_trigger_queue&lt;br&gt;(由静态检查传过来的消息)" style="rounded=0;whiteSpace=wrap;html=1;" parent="1" vertex="1">
          <mxGeometry x="270" y="160" width="240" height="60" as="geometry" />
        </mxCell>
        <mxCell id="UV0igj0LLgznHNvqHeoO-3" style="edgeStyle=orthogonalEdgeStyle;rounded=0;orthogonalLoop=1;jettySize=auto;html=1;" edge="1" parent="1" source="UV0igj0LLgznHNvqHeoO-1">
          <mxGeometry relative="1" as="geometry">
            <mxPoint x="390" y="769.9999999999998" as="targetPoint" />
          </mxGeometry>
        </mxCell>
        <mxCell id="UV0igj0LLgznHNvqHeoO-1" value="&lt;br&gt;&lt;span style=&quot;white-space-collapse: preserve-breaks; box-sizing: border-box; letter-spacing: 4px; color: rgb(112, 125, 107); font-family: &amp;quot;Public Sans&amp;quot;, -apple-system, BlinkMacSystemFont, &amp;quot;Segoe UI&amp;quot;, Oxygen, Ubuntu, Cantarell, &amp;quot;Fira Sans&amp;quot;, &amp;quot;Droid Sans&amp;quot;, &amp;quot;Helvetica Neue&amp;quot;, sans-serif; font-size: 15px; background-color: rgb(255, 255, 255);&quot; class=&quot;json_nbsp&quot;&gt;&amp;nbsp;&lt;/span&gt;&lt;span style=&quot;white-space-collapse: preserve-breaks; box-sizing: border-box; color: rgb(146, 39, 143); font-weight: bold; font-family: &amp;quot;Public Sans&amp;quot;, -apple-system, BlinkMacSystemFont, &amp;quot;Segoe UI&amp;quot;, Oxygen, Ubuntu, Cantarell, &amp;quot;Fira Sans&amp;quot;, &amp;quot;Droid Sans&amp;quot;, &amp;quot;Helvetica Neue&amp;quot;, sans-serif; font-size: 15px; background-color: rgb(255, 255, 255);&quot; class=&quot;json_key&quot;&gt;&quot;media_info&quot;&lt;/span&gt;&lt;span style=&quot;white-space-collapse: preserve-breaks; color: rgb(112, 125, 107); font-family: &amp;quot;Public Sans&amp;quot;, -apple-system, BlinkMacSystemFont, &amp;quot;Segoe UI&amp;quot;, Oxygen, Ubuntu, Cantarell, &amp;quot;Fira Sans&amp;quot;, &amp;quot;Droid Sans&amp;quot;, &amp;quot;Helvetica Neue&amp;quot;, sans-serif; font-size: 15px; background-color: rgb(255, 255, 255); float: none; display: inline !important;&quot;&gt;:&lt;/span&gt;&lt;span style=&quot;white-space-collapse: preserve-breaks; box-sizing: border-box; letter-spacing: 4px; color: rgb(112, 125, 107); font-family: &amp;quot;Public Sans&amp;quot;, -apple-system, BlinkMacSystemFont, &amp;quot;Segoe UI&amp;quot;, Oxygen, Ubuntu, Cantarell, &amp;quot;Fira Sans&amp;quot;, &amp;quot;Droid Sans&amp;quot;, &amp;quot;Helvetica Neue&amp;quot;, sans-serif; font-size: 15px; background-color: rgb(255, 255, 255);&quot; class=&quot;json_nbsp&quot;&gt;&amp;nbsp;&lt;/span&gt;&lt;span style=&quot;box-sizing: border-box; color: rgb(112, 125, 107); background-color: rgb(255, 255, 255);&quot; data-type=&quot;object&quot;&gt;&lt;span style=&quot;color: rgb(234, 84, 85); font-size: 1.125rem; white-space-collapse: preserve-breaks; background-color: light-dark(rgb(255, 255, 255), rgb(18, 18, 18)); box-sizing: border-box; vertical-align: middle; line-height: 1; display: inline-block; speak: none; font-variant-numeric: normal; font-variant-east-asian: normal; font-variant-alternates: normal; font-variant-position: normal; font-variant-emoji: normal; -webkit-font-smoothing: antialiased; position: relative; top: -1px; cursor: pointer; font-family: tabler-icons !important;&quot; class=&quot;ti ti-square-rounded-minus&quot;&gt;&lt;/span&gt;&lt;font face=&quot;Public Sans, -apple-system, BlinkMacSystemFont, Segoe UI, Oxygen, Ubuntu, Cantarell, Fira Sans, Droid Sans, Helvetica Neue, sans-serif&quot;&gt;&lt;span style=&quot;font-size: 15px; white-space-collapse: preserve-breaks;&quot;&gt;{&lt;/span&gt;&lt;/font&gt;&lt;br style=&quot;box-sizing: border-box;&quot;&gt;&lt;span style=&quot;color: light-dark(rgb(112, 125, 107), rgb(126, 137, 122)); font-family: &amp;quot;Public Sans&amp;quot;, -apple-system, BlinkMacSystemFont, &amp;quot;Segoe UI&amp;quot;, Oxygen, Ubuntu, Cantarell, &amp;quot;Fira Sans&amp;quot;, &amp;quot;Droid Sans&amp;quot;, &amp;quot;Helvetica Neue&amp;quot;, sans-serif; font-size: 15px; white-space-collapse: preserve-breaks; background-color: light-dark(rgb(255, 255, 255), rgb(18, 18, 18)); box-sizing: border-box; letter-spacing: 4px;&quot; class=&quot;json_nbsp&quot;&gt;&amp;nbsp;&amp;nbsp;&amp;nbsp;&amp;nbsp;&lt;/span&gt;&lt;span style=&quot;color: light-dark(rgb(112, 125, 107), rgb(126, 137, 122)); font-family: &amp;quot;Public Sans&amp;quot;, -apple-system, BlinkMacSystemFont, &amp;quot;Segoe UI&amp;quot;, Oxygen, Ubuntu, Cantarell, &amp;quot;Fira Sans&amp;quot;, &amp;quot;Droid Sans&amp;quot;, &amp;quot;Helvetica Neue&amp;quot;, sans-serif; font-size: 15px; white-space-collapse: preserve-breaks; background-color: light-dark(rgb(255, 255, 255), rgb(18, 18, 18)); box-sizing: border-box; letter-spacing: 4px;&quot; class=&quot;json_nbsp&quot;&gt;&amp;nbsp;&amp;nbsp;&amp;nbsp;&amp;nbsp;&lt;/span&gt;&lt;span style=&quot;color: rgb(146, 39, 143); font-family: &amp;quot;Public Sans&amp;quot;, -apple-system, BlinkMacSystemFont, &amp;quot;Segoe UI&amp;quot;, Oxygen, Ubuntu, Cantarell, &amp;quot;Fira Sans&amp;quot;, &amp;quot;Droid Sans&amp;quot;, &amp;quot;Helvetica Neue&amp;quot;, sans-serif; font-size: 15px; white-space-collapse: preserve-breaks; background-color: light-dark(rgb(255, 255, 255), rgb(18, 18, 18)); box-sizing: border-box; font-weight: bold;&quot; class=&quot;json_key&quot;&gt;&quot;tweet_info&quot;&lt;/span&gt;&lt;font face=&quot;Public Sans, -apple-system, BlinkMacSystemFont, Segoe UI, Oxygen, Ubuntu, Cantarell, Fira Sans, Droid Sans, Helvetica Neue, sans-serif&quot;&gt;&lt;span style=&quot;font-size: 15px; white-space-collapse: preserve-breaks;&quot;&gt;:&lt;/span&gt;&lt;/font&gt;&lt;span style=&quot;color: light-dark(rgb(112, 125, 107), rgb(126, 137, 122)); font-family: &amp;quot;Public Sans&amp;quot;, -apple-system, BlinkMacSystemFont, &amp;quot;Segoe UI&amp;quot;, Oxygen, Ubuntu, Cantarell, &amp;quot;Fira Sans&amp;quot;, &amp;quot;Droid Sans&amp;quot;, &amp;quot;Helvetica Neue&amp;quot;, sans-serif; font-size: 15px; white-space-collapse: preserve-breaks; background-color: light-dark(rgb(255, 255, 255), rgb(18, 18, 18)); box-sizing: border-box; letter-spacing: 4px;&quot; class=&quot;json_nbsp&quot;&gt;&amp;nbsp;&lt;/span&gt;&lt;span style=&quot;color: light-dark(rgb(112, 125, 107), rgb(126, 137, 122)); font-family: &amp;quot;Public Sans&amp;quot;, -apple-system, BlinkMacSystemFont, &amp;quot;Segoe UI&amp;quot;, Oxygen, Ubuntu, Cantarell, &amp;quot;Fira Sans&amp;quot;, &amp;quot;Droid Sans&amp;quot;, &amp;quot;Helvetica Neue&amp;quot;, sans-serif; font-size: 15px; white-space-collapse: preserve-breaks; background-color: light-dark(rgb(255, 255, 255), rgb(18, 18, 18)); box-sizing: border-box;&quot; data-type=&quot;object&quot;&gt;&lt;span style=&quot;box-sizing: border-box; vertical-align: middle; font-size: 1.125rem; line-height: 1; display: inline-block; speak: none; font-variant-numeric: normal; font-variant-east-asian: normal; font-variant-alternates: normal; font-variant-position: normal; font-variant-emoji: normal; -webkit-font-smoothing: antialiased; color: rgb(234, 84, 85); position: relative; top: -1px; cursor: pointer; font-family: tabler-icons !important;&quot; class=&quot;ti ti-square-rounded-minus&quot;&gt;&lt;/span&gt;{&lt;br style=&quot;box-sizing: border-box;&quot;&gt;&lt;span style=&quot;box-sizing: border-box; letter-spacing: 4px;&quot; class=&quot;json_nbsp&quot;&gt;&amp;nbsp;&amp;nbsp;&amp;nbsp;&amp;nbsp;&lt;/span&gt;&lt;span style=&quot;box-sizing: border-box; letter-spacing: 4px;&quot; class=&quot;json_nbsp&quot;&gt;&amp;nbsp;&amp;nbsp;&amp;nbsp;&amp;nbsp;&lt;/span&gt;&lt;span style=&quot;box-sizing: border-box; letter-spacing: 4px;&quot; class=&quot;json_nbsp&quot;&gt;&amp;nbsp;&amp;nbsp;&amp;nbsp;&amp;nbsp;&lt;/span&gt;&lt;span style=&quot;box-sizing: border-box; color: rgb(146, 39, 143); font-weight: bold;&quot; class=&quot;json_key&quot;&gt;&quot;tweet_id&quot;&lt;/span&gt;:&lt;span style=&quot;box-sizing: border-box; letter-spacing: 4px;&quot; class=&quot;json_nbsp&quot;&gt;&amp;nbsp;&lt;/span&gt;&lt;span style=&quot;box-sizing: border-box; color: rgb(58, 181, 74); font-weight: bold;&quot; class=&quot;json_string&quot;&gt;&quot;1966348480655618141&quot;&lt;/span&gt;,&lt;br style=&quot;box-sizing: border-box;&quot;&gt;&lt;span style=&quot;box-sizing: border-box; letter-spacing: 4px;&quot; class=&quot;json_nbsp&quot;&gt;&amp;nbsp;&amp;nbsp;&amp;nbsp;&amp;nbsp;&lt;/span&gt;&lt;span style=&quot;box-sizing: border-box; letter-spacing: 4px;&quot; class=&quot;json_nbsp&quot;&gt;&amp;nbsp;&amp;nbsp;&amp;nbsp;&amp;nbsp;&lt;/span&gt;&lt;span style=&quot;box-sizing: border-box; letter-spacing: 4px;&quot; class=&quot;json_nbsp&quot;&gt;&amp;nbsp;&amp;nbsp;&amp;nbsp;&amp;nbsp;&lt;/span&gt;&lt;span style=&quot;box-sizing: border-box; color: rgb(146, 39, 143); font-weight: bold;&quot; class=&quot;json_key&quot;&gt;&quot;username&quot;&lt;/span&gt;:&lt;span style=&quot;box-sizing: border-box; letter-spacing: 4px;&quot; class=&quot;json_nbsp&quot;&gt;&amp;nbsp;&lt;/span&gt;&lt;span style=&quot;box-sizing: border-box; color: rgb(58, 181, 74); font-weight: bold;&quot; class=&quot;json_string&quot;&gt;&quot;four_meme_&quot;&lt;/span&gt;,&lt;br style=&quot;box-sizing: border-box;&quot;&gt;&lt;span style=&quot;box-sizing: border-box; letter-spacing: 4px;&quot; class=&quot;json_nbsp&quot;&gt;&amp;nbsp;&amp;nbsp;&amp;nbsp;&amp;nbsp;&lt;/span&gt;&lt;span style=&quot;box-sizing: border-box; letter-spacing: 4px;&quot; class=&quot;json_nbsp&quot;&gt;&amp;nbsp;&amp;nbsp;&amp;nbsp;&amp;nbsp;&lt;/span&gt;&lt;span style=&quot;box-sizing: border-box; letter-spacing: 4px;&quot; class=&quot;json_nbsp&quot;&gt;&amp;nbsp;&amp;nbsp;&amp;nbsp;&amp;nbsp;&lt;/span&gt;&lt;span style=&quot;box-sizing: border-box; color: rgb(146, 39, 143); font-weight: bold;&quot; class=&quot;json_key&quot;&gt;&quot;followers&quot;&lt;/span&gt;:&lt;span style=&quot;box-sizing: border-box; letter-spacing: 4px;&quot; class=&quot;json_nbsp&quot;&gt;&amp;nbsp;&lt;/span&gt;&lt;span style=&quot;box-sizing: border-box; color: rgb(37, 170, 226); font-weight: bold;&quot; class=&quot;json_number&quot;&gt;7059778&lt;/span&gt;,&lt;br style=&quot;box-sizing: border-box;&quot;&gt;&lt;span style=&quot;box-sizing: border-box; letter-spacing: 4px;&quot; class=&quot;json_nbsp&quot;&gt;&amp;nbsp;&amp;nbsp;&amp;nbsp;&amp;nbsp;&lt;/span&gt;&lt;span style=&quot;box-sizing: border-box; letter-spacing: 4px;&quot; class=&quot;json_nbsp&quot;&gt;&amp;nbsp;&amp;nbsp;&amp;nbsp;&amp;nbsp;&lt;/span&gt;&lt;span style=&quot;box-sizing: border-box; letter-spacing: 4px;&quot; class=&quot;json_nbsp&quot;&gt;&amp;nbsp;&amp;nbsp;&amp;nbsp;&amp;nbsp;&lt;/span&gt;&lt;span style=&quot;box-sizing: border-box; color: rgb(146, 39, 143); font-weight: bold;&quot; class=&quot;json_key&quot;&gt;&quot;list_id&quot;&lt;/span&gt;:&lt;span style=&quot;box-sizing: border-box; letter-spacing: 4px;&quot; class=&quot;json_nbsp&quot;&gt;&amp;nbsp;&lt;/span&gt;&lt;span style=&quot;box-sizing: border-box; color: rgb(58, 181, 74); font-weight: bold;&quot; class=&quot;json_string&quot;&gt;&quot;1925100589379162496&quot;&lt;/span&gt;,&lt;br style=&quot;box-sizing: border-box;&quot;&gt;&lt;span style=&quot;box-sizing: border-box; letter-spacing: 4px;&quot; class=&quot;json_nbsp&quot;&gt;&amp;nbsp;&amp;nbsp;&amp;nbsp;&amp;nbsp;&lt;/span&gt;&lt;span style=&quot;box-sizing: border-box; letter-spacing: 4px;&quot; class=&quot;json_nbsp&quot;&gt;&amp;nbsp;&amp;nbsp;&amp;nbsp;&amp;nbsp;&lt;/span&gt;&lt;span style=&quot;box-sizing: border-box; letter-spacing: 4px;&quot; class=&quot;json_nbsp&quot;&gt;&amp;nbsp;&amp;nbsp;&amp;nbsp;&amp;nbsp;&lt;/span&gt;&lt;span style=&quot;box-sizing: border-box; color: rgb(146, 39, 143); font-weight: bold;&quot; class=&quot;json_key&quot;&gt;&quot;registration_time&quot;&lt;/span&gt;:&lt;span style=&quot;box-sizing: border-box; letter-spacing: 4px;&quot; class=&quot;json_nbsp&quot;&gt;&amp;nbsp;&lt;/span&gt;&lt;span style=&quot;box-sizing: border-box; color: rgb(58, 181, 74); font-weight: bold;&quot; class=&quot;json_string&quot;&gt;&quot;Fri&amp;nbsp;Mar&amp;nbsp;06&amp;nbsp;03:20:20&amp;nbsp;+0000&amp;nbsp;2009&quot;&lt;/span&gt;,&lt;br style=&quot;box-sizing: border-box;&quot;&gt;&lt;span style=&quot;box-sizing: border-box; letter-spacing: 4px;&quot; class=&quot;json_nbsp&quot;&gt;&amp;nbsp;&amp;nbsp;&amp;nbsp;&amp;nbsp;&lt;/span&gt;&lt;span style=&quot;box-sizing: border-box; letter-spacing: 4px;&quot; class=&quot;json_nbsp&quot;&gt;&amp;nbsp;&amp;nbsp;&amp;nbsp;&amp;nbsp;&lt;/span&gt;&lt;span style=&quot;box-sizing: border-box; letter-spacing: 4px;&quot; class=&quot;json_nbsp&quot;&gt;&amp;nbsp;&amp;nbsp;&amp;nbsp;&amp;nbsp;&lt;/span&gt;&lt;span style=&quot;box-sizing: border-box; color: rgb(146, 39, 143); font-weight: bold;&quot; class=&quot;json_key&quot;&gt;&quot;rest_id&quot;&lt;/span&gt;:&lt;span style=&quot;box-sizing: border-box; letter-spacing: 4px;&quot; class=&quot;json_nbsp&quot;&gt;&amp;nbsp;&lt;/span&gt;&lt;span style=&quot;box-sizing: border-box; color: rgb(58, 181, 74); font-weight: bold;&quot; class=&quot;json_string&quot;&gt;&quot;1966348480655618141&quot;&lt;/span&gt;,&lt;br style=&quot;box-sizing: border-box;&quot;&gt;&lt;span style=&quot;box-sizing: border-box; letter-spacing: 4px;&quot; class=&quot;json_nbsp&quot;&gt;&amp;nbsp;&amp;nbsp;&amp;nbsp;&amp;nbsp;&lt;/span&gt;&lt;span style=&quot;box-sizing: border-box; letter-spacing: 4px;&quot; class=&quot;json_nbsp&quot;&gt;&amp;nbsp;&amp;nbsp;&amp;nbsp;&amp;nbsp;&lt;/span&gt;&lt;span style=&quot;box-sizing: border-box; letter-spacing: 4px;&quot; class=&quot;json_nbsp&quot;&gt;&amp;nbsp;&amp;nbsp;&amp;nbsp;&amp;nbsp;&lt;/span&gt;&lt;span style=&quot;box-sizing: border-box; color: rgb(146, 39, 143); font-weight: bold;&quot; class=&quot;json_key&quot;&gt;&quot;tweet_note&quot;&lt;/span&gt;:&lt;span style=&quot;box-sizing: border-box; letter-spacing: 4px;&quot; class=&quot;json_nbsp&quot;&gt;&amp;nbsp;&lt;/span&gt;&lt;span style=&quot;box-sizing: border-box; color: rgb(58, 181, 74); font-weight: bold;&quot; class=&quot;json_string&quot;&gt;&quot;desci&quot;&lt;/span&gt;,&lt;br style=&quot;box-sizing: border-box;&quot;&gt;&lt;span style=&quot;box-sizing: border-box; letter-spacing: 4px;&quot; class=&quot;json_nbsp&quot;&gt;&amp;nbsp;&amp;nbsp;&amp;nbsp;&amp;nbsp;&lt;/span&gt;&lt;span style=&quot;box-sizing: border-box; letter-spacing: 4px;&quot; class=&quot;json_nbsp&quot;&gt;&amp;nbsp;&amp;nbsp;&amp;nbsp;&amp;nbsp;&lt;/span&gt;&lt;span style=&quot;box-sizing: border-box; letter-spacing: 4px;&quot; class=&quot;json_nbsp&quot;&gt;&amp;nbsp;&amp;nbsp;&amp;nbsp;&amp;nbsp;&lt;/span&gt;&lt;span style=&quot;box-sizing: border-box; color: rgb(146, 39, 143); font-weight: bold;&quot; class=&quot;json_key&quot;&gt;&quot;timestamp&quot;&lt;/span&gt;:&lt;span style=&quot;box-sizing: border-box; letter-spacing: 4px;&quot; class=&quot;json_nbsp&quot;&gt;&amp;nbsp;&lt;/span&gt;&lt;span style=&quot;box-sizing: border-box; color: rgb(37, 170, 226); font-weight: bold;&quot; class=&quot;json_number&quot;&gt;1757648985&lt;/span&gt;,&lt;br style=&quot;box-sizing: border-box;&quot;&gt;&lt;span style=&quot;box-sizing: border-box; letter-spacing: 4px;&quot; class=&quot;json_nbsp&quot;&gt;&amp;nbsp;&amp;nbsp;&amp;nbsp;&amp;nbsp;&lt;/span&gt;&lt;span style=&quot;box-sizing: border-box; letter-spacing: 4px;&quot; class=&quot;json_nbsp&quot;&gt;&amp;nbsp;&amp;nbsp;&amp;nbsp;&amp;nbsp;&lt;/span&gt;&lt;span style=&quot;box-sizing: border-box; letter-spacing: 4px;&quot; class=&quot;json_nbsp&quot;&gt;&amp;nbsp;&amp;nbsp;&amp;nbsp;&amp;nbsp;&lt;/span&gt;&lt;span style=&quot;box-sizing: border-box; color: rgb(146, 39, 143); font-weight: bold;&quot; class=&quot;json_key&quot;&gt;&quot;listed_count&quot;&lt;/span&gt;:&lt;span style=&quot;box-sizing: border-box; letter-spacing: 4px;&quot; class=&quot;json_nbsp&quot;&gt;&amp;nbsp;&lt;/span&gt;&lt;span style=&quot;box-sizing: border-box; color: rgb(37, 170, 226); font-weight: bold;&quot; class=&quot;json_number&quot;&gt;17886&lt;/span&gt;,&lt;br style=&quot;box-sizing: border-box;&quot;&gt;&lt;span style=&quot;box-sizing: border-box; letter-spacing: 4px;&quot; class=&quot;json_nbsp&quot;&gt;&amp;nbsp;&amp;nbsp;&amp;nbsp;&amp;nbsp;&lt;/span&gt;&lt;span style=&quot;box-sizing: border-box; letter-spacing: 4px;&quot; class=&quot;json_nbsp&quot;&gt;&amp;nbsp;&amp;nbsp;&amp;nbsp;&amp;nbsp;&lt;/span&gt;&lt;span style=&quot;box-sizing: border-box; letter-spacing: 4px;&quot; class=&quot;json_nbsp&quot;&gt;&amp;nbsp;&amp;nbsp;&amp;nbsp;&amp;nbsp;&lt;/span&gt;&lt;span style=&quot;box-sizing: border-box; color: rgb(146, 39, 143); font-weight: bold;&quot; class=&quot;json_key&quot;&gt;&quot;statuses_count&quot;&lt;/span&gt;:&lt;span style=&quot;box-sizing: border-box; letter-spacing: 4px;&quot; class=&quot;json_nbsp&quot;&gt;&amp;nbsp;&lt;/span&gt;&lt;span style=&quot;box-sizing: border-box; color: rgb(37, 170, 226); font-weight: bold;&quot; class=&quot;json_number&quot;&gt;55517&lt;/span&gt;,&lt;br style=&quot;box-sizing: border-box;&quot;&gt;&lt;span style=&quot;box-sizing: border-box; letter-spacing: 4px;&quot; class=&quot;json_nbsp&quot;&gt;&amp;nbsp;&amp;nbsp;&amp;nbsp;&amp;nbsp;&lt;/span&gt;&lt;span style=&quot;box-sizing: border-box; letter-spacing: 4px;&quot; class=&quot;json_nbsp&quot;&gt;&amp;nbsp;&amp;nbsp;&amp;nbsp;&amp;nbsp;&lt;/span&gt;&lt;span style=&quot;box-sizing: border-box; letter-spacing: 4px;&quot; class=&quot;json_nbsp&quot;&gt;&amp;nbsp;&amp;nbsp;&amp;nbsp;&amp;nbsp;&lt;/span&gt;&lt;span style=&quot;box-sizing: border-box; color: rgb(146, 39, 143); font-weight: bold;&quot; class=&quot;json_key&quot;&gt;&quot;verified&quot;&lt;/span&gt;:&lt;span style=&quot;box-sizing: border-box; letter-spacing: 4px;&quot; class=&quot;json_nbsp&quot;&gt;&amp;nbsp;&lt;/span&gt;&lt;span style=&quot;box-sizing: border-box; color: rgb(249, 130, 128); font-weight: bold;&quot; class=&quot;json_boolean&quot;&gt;true&lt;/span&gt;&lt;br style=&quot;box-sizing: border-box;&quot;&gt;&lt;span style=&quot;box-sizing: border-box; letter-spacing: 4px;&quot; class=&quot;json_nbsp&quot;&gt;&amp;nbsp;&amp;nbsp;&amp;nbsp;&amp;nbsp;&lt;/span&gt;&lt;span style=&quot;box-sizing: border-box; letter-spacing: 4px;&quot; class=&quot;json_nbsp&quot;&gt;&amp;nbsp;&amp;nbsp;&amp;nbsp;&amp;nbsp;&lt;/span&gt;}&lt;/span&gt;&lt;br style=&quot;box-sizing: border-box;&quot;&gt;&lt;span style=&quot;color: light-dark(rgb(112, 125, 107), rgb(126, 137, 122)); font-family: &amp;quot;Public Sans&amp;quot;, -apple-system, BlinkMacSystemFont, &amp;quot;Segoe UI&amp;quot;, Oxygen, Ubuntu, Cantarell, &amp;quot;Fira Sans&amp;quot;, &amp;quot;Droid Sans&amp;quot;, &amp;quot;Helvetica Neue&amp;quot;, sans-serif; font-size: 15px; white-space-collapse: preserve-breaks; background-color: light-dark(rgb(255, 255, 255), rgb(18, 18, 18)); box-sizing: border-box; letter-spacing: 4px;&quot; class=&quot;json_nbsp&quot;&gt;&amp;nbsp;&amp;nbsp;&amp;nbsp;&amp;nbsp;&lt;/span&gt;&lt;font face=&quot;Public Sans, -apple-system, BlinkMacSystemFont, Segoe UI, Oxygen, Ubuntu, Cantarell, Fira Sans, Droid Sans, Helvetica Neue, sans-serif&quot;&gt;&lt;span style=&quot;font-size: 15px; white-space-collapse: preserve-breaks;&quot;&gt;}&lt;/span&gt;&lt;/font&gt;&lt;/span&gt;&lt;div&gt;&lt;font face=&quot;Public Sans, -apple-system, BlinkMacSystemFont, Segoe UI, Oxygen, Ubuntu, Cantarell, Fira Sans, Droid Sans, Helvetica Neue, sans-serif&quot;&gt;&lt;span style=&quot;white-space-collapse: preserve-breaks; background-color: rgb(255, 255, 255);&quot;&gt;&lt;span style=&quot;font-size: 15px;&quot;&gt;&lt;font&gt;&lt;br&gt;&lt;/font&gt;&lt;/span&gt;&lt;/span&gt;&lt;/font&gt;对tweet_note这个字段的内容提取除了首个单词外中其他所有全大写单词和首字母大写单词，如果提取到了则进入下一步，没有的话则丢弃该消息&lt;/div&gt;" style="rounded=0;whiteSpace=wrap;html=1;align=left;" vertex="1" parent="1">
          <mxGeometry x="30" y="330" width="720" height="340" as="geometry" />
        </mxCell>
        <mxCell id="UV0igj0LLgznHNvqHeoO-5" style="edgeStyle=orthogonalEdgeStyle;rounded=0;orthogonalLoop=1;jettySize=auto;html=1;" edge="1" parent="1" source="UV0igj0LLgznHNvqHeoO-4">
          <mxGeometry relative="1" as="geometry">
            <mxPoint x="390" y="1620" as="targetPoint" />
          </mxGeometry>
        </mxCell>
        <mxCell id="UV0igj0LLgznHNvqHeoO-4" value="&lt;div style=&quot;text-align: left;&quot;&gt;同时调用下面这12种API&lt;br&gt;&lt;div&gt;bsc&lt;/div&gt;&lt;div&gt;fourmeme接口 - token0Symbol搜索&lt;/div&gt;&lt;div&gt;http://192.168.0.130:20527/api/selectSortedByField?index=blockchain_bsc_fourmeme&amp;amp;searchField=token0Symbol&amp;amp;searchValue=FOURMEME&amp;amp;matchMode=2&lt;/div&gt;&lt;div&gt;&lt;br&gt;&lt;/div&gt;&lt;div&gt;fourmeme接口 - token1Symbol搜索&lt;/div&gt;&lt;div&gt;http://192.168.0.130:20527/api/selectSortedByField?index=blockchain_bsc_fourmeme&amp;amp;searchField=token1Symbol&amp;amp;searchValue=FOURMEME&amp;amp;matchMode=2&lt;/div&gt;&lt;div&gt;&lt;br&gt;&lt;/div&gt;&lt;div&gt;pancakeswapv2接口 - token0Symbol搜索&lt;/div&gt;&lt;div&gt;http://192.168.0.130:20527/api/selectSortedByField?index=blockchain_bsc_pancakeswapv2&amp;amp;searchField=token0Symbol&amp;amp;searchValue=PANCAKESWAPV2&amp;amp;matchMode=2&lt;/div&gt;&lt;div&gt;&lt;br&gt;&lt;/div&gt;&lt;div&gt;pancakeswapv2接口 - token1Symbol搜索&lt;/div&gt;&lt;div&gt;http://192.168.0.130:20527/api/selectSortedByField?index=blockchain_bsc_pancakeswapv2&amp;amp;searchField=token1Symbol&amp;amp;searchValue=PANCAKESWAPV2&amp;amp;matchMode=2&lt;/div&gt;&lt;div&gt;&lt;br&gt;&lt;/div&gt;&lt;div&gt;pancakeswapv3接口 - token0Symbol搜索&lt;/div&gt;&lt;div&gt;http://192.168.0.130:20527/api/selectSortedByField?index=blockchain_bsc_pancakeswapv3&amp;amp;searchField=token0Symbol&amp;amp;searchValue=PANCAKESWAPV3&amp;amp;matchMode=2&lt;/div&gt;&lt;div&gt;&lt;br&gt;&lt;/div&gt;&lt;div&gt;pancakeswapv3接口 - token1Symbol搜索&lt;/div&gt;&lt;div&gt;http://192.168.0.130:20527/api/selectSortedByField?index=blockchain_bsc_pancakeswapv3&amp;amp;searchField=token1Symbol&amp;amp;searchValue=PANCAKESWAPV3&amp;amp;matchMode=2&lt;/div&gt;&lt;div&gt;&lt;br&gt;&lt;/div&gt;&lt;div&gt;solana&lt;/div&gt;&lt;div&gt;pumpfun接口 - token0Symbol搜索&lt;/div&gt;&lt;div&gt;http://192.168.0.130:20527/api/selectSortedByField?index=blockchain_solana_pumpfun&amp;amp;searchField=token0Symbol&amp;amp;searchValue=PUMP&amp;amp;matchMode=2&lt;/div&gt;&lt;div&gt;&lt;br&gt;&lt;/div&gt;&lt;div&gt;pumpfun接口 - token1Symbol搜索&lt;/div&gt;&lt;div&gt;http://192.168.0.130:20527/api/selectSortedByField?index=blockchain_solana_pumpfun&amp;amp;searchField=token1Symbol&amp;amp;searchValue=PUMP&amp;amp;matchMode=2&lt;/div&gt;&lt;div&gt;&lt;br&gt;&lt;/div&gt;&lt;div&gt;bonkfun接口 - token0Symbol搜索&lt;/div&gt;&lt;div&gt;http://192.168.0.130:20527/api/selectSortedByField?index=blockchain_solana_bonkfun&amp;amp;searchField=token0Symbol&amp;amp;searchValue=BONK&amp;amp;matchMode=2&lt;/div&gt;&lt;div&gt;&lt;br&gt;&lt;/div&gt;&lt;div&gt;bonkfun接口 - token1Symbol搜索&lt;/div&gt;&lt;div&gt;http://192.168.0.130:20527/api/selectSortedByField?index=blockchain_solana_bonkfun&amp;amp;searchField=token1Symbol&amp;amp;searchValue=BONK&amp;amp;matchMode=2&lt;/div&gt;&lt;div&gt;&lt;br&gt;&lt;/div&gt;&lt;div&gt;raydium接口 - token0Symbol搜索&lt;/div&gt;&lt;div&gt;http://192.168.0.130:20527/api/selectSortedByField?index=blockchain_solana_raydium&amp;amp;searchField=token0Symbol&amp;amp;searchValue=RAY&amp;amp;matchMode=2&lt;/div&gt;&lt;div&gt;&lt;br&gt;&lt;/div&gt;&lt;div&gt;raydium接口 - token1Symbol搜索&lt;/div&gt;&lt;div&gt;http://192.168.0.130:20527/api/selectSortedByField?index=blockchain_solana_raydium&amp;amp;searchField=token1Symbol&amp;amp;searchValue=RAY&amp;amp;matchMode=2&lt;/div&gt;&lt;/div&gt;" style="rounded=0;whiteSpace=wrap;html=1;" vertex="1" parent="1">
          <mxGeometry x="40" y="770" width="700" height="780" as="geometry" />
        </mxCell>
        <mxCell id="UV0igj0LLgznHNvqHeoO-10" style="edgeStyle=orthogonalEdgeStyle;rounded=0;orthogonalLoop=1;jettySize=auto;html=1;" edge="1" parent="1" source="UV0igj0LLgznHNvqHeoO-6" target="UV0igj0LLgznHNvqHeoO-8">
          <mxGeometry relative="1" as="geometry" />
        </mxCell>
        <mxCell id="UV0igj0LLgznHNvqHeoO-6" value="多个API响应有结果，那么就形成多个订单" style="rounded=0;whiteSpace=wrap;html=1;" vertex="1" parent="1">
          <mxGeometry x="275" y="1620" width="230" height="60" as="geometry" />
        </mxCell>
        <mxCell id="UV0igj0LLgznHNvqHeoO-7" style="edgeStyle=orthogonalEdgeStyle;rounded=0;orthogonalLoop=1;jettySize=auto;html=1;" edge="1" parent="1" source="UV0igj0LLgznHNvqHeoO-8">
          <mxGeometry relative="1" as="geometry">
            <mxPoint x="390" y="1840" as="targetPoint" />
          </mxGeometry>
        </mxCell>
        <mxCell id="UV0igj0LLgznHNvqHeoO-8" value="发送到&lt;br&gt;(amqp://admin:admin@192.168.0.130:5672)&lt;br&gt;multi_strategy_on_one_token_queue" style="rounded=0;whiteSpace=wrap;html=1;" vertex="1" parent="1">
          <mxGeometry x="270" y="1730" width="240" height="60" as="geometry" />
        </mxCell>
        <mxCell id="UV0igj0LLgznHNvqHeoO-9" value="结束" style="rounded=1;whiteSpace=wrap;html=1;" vertex="1" parent="1">
          <mxGeometry x="330" y="1840" width="120" height="60" as="geometry" />
        </mxCell>
      </root>
    </mxGraphModel>
  </diagram>
</mxfile>
